<svg xmlns="http://www.w3.org/2000/svg" viewBox="0 0 951.9 109"><defs><style>.cls-1{fill:#3bbe21;}.cls-2{fill:#4ee529;}</style></defs><title>logo-horizontal-colour</title><path d="M29.67 24.4c7 0 22.45 2.42 22.45 11.5v7.78h-9.65v-4.46c0-4.3-7.62-5.76-12.32-5.76-11.1 0-19.2 7.8-19.2 19.94 0 13 8.42 21.4 19.77 21.4 3.5 0 12.48-1.14 12.48-5.67v-4.46h9.65v7.86c0 8.6-14.83 11.35-22.78 11.35-17.43 0-30.07-13.2-30.07-30 0-17 12.94-29.5 29.67-29.5zM57.74 74.96H63l17.27-49.6h12.08l17.26 49.6h5.28v7.94H93.24v-7.94h5.7l-3.6-10.78H77.2L73.6 74.96h5.67v7.94H57.73zm35.18-19l-5.43-16.3a24.64 24.64 0 0 1-1.06-5h-.24a33.94 33.94 0 0 1-1.05 5l-5.5 16.3zM129.2 64.35v4.3c0 3.73 4.7 5.92 10.14 5.92 5.84 0 10-2.5 10-7.13 0-5.84-6.57-7.7-13.2-10.3-7.7-2.9-15.25-6.4-15.25-16.7 0-11.58 9.4-16 19.28-16 9.08 0 18.24 3.5 18.24 10.14v7.48h-9.68v-3.9c0-2.9-4.3-4.45-8.6-4.45-4.7 0-8.58 1.96-8.58 6.33 0 5.27 5.35 7.13 11.35 9.4 8.6 3.08 17.2 6.48 17.2 17.26 0 11.74-9.9 17.17-20.76 17.17-9.56 0-19.78-4.3-19.78-13v-6.52zM166.08 74.96h6.86V33.38h-6.9v-8h24.5v8h-7v41.58h7v7.94h-24.46zM196.94 74.96h6.9V33.38h-6.9v-8h17.5l24.23 37a28.33 28.33 0 0 1 2.1 4.86h.25a43.72 43.72 0 0 1-.32-5.43V33.4h-7.13v-8h24.64v8h-6.88V82.9H240.7l-24.24-36.87a31.52 31.52 0 0 1-2.1-4.86h-.33a36.55 36.55 0 0 1 .4 5.35v28.44h7.13v7.94h-24.62zM291.87 24.4c17 0 29.83 12.88 29.83 29.33 0 16.94-12.8 30.15-29.83 30.15s-29.83-13.2-29.83-30.15c0-16.45 12.8-29.34 29.83-29.34zm0 50.16c10.37 0 18.88-9 18.88-20.83 0-11.35-8.5-20-18.88-20s-18.93 8.65-18.93 20c0 11.83 8.55 20.83 18.93 20.83z" class="cls-1"/><path d="M327.3 72.37h6.47v-36.9h-6.48v-10.5h28.84c3.32 0 6.8.15 9.73 1.3 6.8 2.58 11.2 9.64 11.2 18.23s-4.47 16-11.44 18.48a28.65 28.65 0 0 1-9.08 1.22h-8.27v8.2h6.48v10.53H327.3zm27.14-19.53a9.54 9.54 0 0 0 5.1-1.22c2.12-1.38 3.1-4 3.1-7.13s-1-5.6-2.85-6.9a8.85 8.85 0 0 0-5.12-1.3h-6.4v16.54zM381.13 72.37h6.48V36.3h-6.47V24.96h27.48V36.3h-6.47v35.26h12.48v-8.5h12.17V82.9h-45.64zM429.94 72.37h4.78l15.8-47.4h16.54l15.8 47.4h4.8v10.55H463.4V72.37h5l-2.2-7.7h-14.88l-2.2 7.7h5V82.9h-24.2zm33.15-18.72l-3-10.7a34 34 0 0 1-1.16-6.08h-.32a34 34 0 0 1-1.14 6.08l-3.08 10.7zM491.94 72.37h6.48v-36.9h-6.48v-10.5h21.15l18.15 30.7a32.4 32.4 0 0 1 2.43 5.93h.32s-.5-3.9-.5-6.48V35.46h-6.8v-10.5h27.8v10.5h-6.48v47.42h-14.58L515.2 52.35a32.25 32.25 0 0 1-2.43-5.9h-.32s.5 3.9.5 6.5v19.44h6.8v10.53h-27.8zM560.1 72.37h6.48v-36.9h-6.48v-10.5h44.66v17.1H592.6V36.3h-11.5v11.75h16.93V59.4H581.1v12.16h12.47V65.8h12.16v17.1H560.1zM622.44 72.37h6.5V36.3h-6.9v8.16H609.9v-19.5h52.6v19.5h-12.16V36.3h-6.9v36.07h6.52V82.9h-27.5zM667.2 72.37h6.5v-36.9h-6.5v-10.5h44.67v17.1H699.7V36.3h-11.5v11.75h16.94V59.4H688.2v12.16h12.48V65.8h12.16v17.1H667.2zM720.22 72.37h6.48v-36.9h-6.48v-10.5h21.15l18.16 30.7a32.4 32.4 0 0 1 2.4 5.92h.33s-.5-3.9-.5-6.5V35.47h-6.8v-10.5h27.8v10.5h-6.48v47.42h-14.56l-18.24-30.53a32.25 32.25 0 0 1-2.43-5.9h-.32s.5 3.9.5 6.5v19.44h6.8v10.53h-27.8z"/><path d="M887.47 84.25l2.47 14.65a13 13 0 0 0 4.76-3.5l17.55-21.28c1.83-2.22 3.82-4.33 5.06-7a18.22 18.22 0 0 0 1.66-6 263.24 263.24 0 0 1-25.3 19.07q-3.08 2.1-6.2 4.05zM875.7 98.54c2.73.78 5.28 1.67 8.13 1.67h.55q.7 0 1.4-.1l-2.27-13.4q-8.35 5.08-16.68 9.3z" class="cls-1"/><path d="M950.24 5.37c-2.43-3.65-7.32-5.37-14-5.37-7.7 0-17.8 2.3-29.2 6.6a15.32 15.32 0 0 1 4.33 2.3l1.9 1.45.3.32 1.28 2.1a14.78 14.78 0 0 1 1.42 3 15.47 15.47 0 0 1 .54 2.08c3.6.65 6.3 2.13 7.9 4.53 2.67 4 1.8 9.9-1.8 16.67v.1l-.78 1.34c-.5.85-1.06 1.72-1.64 2.6l-.66 1q-.5.73-1 1.46t-1 1.4a113.7 113.7 0 0 1-21.32 20.5l-.34.26c-.7.52-1.4 1-2.1 1.56l-1 .75-1.52 1.08q-1.25.88-2.53 1.74l-.13.1q-1.46 1-2.94 1.9l-1.06.67-1.8 1.1-1.1.65c-2.3 1.36-4.6 2.64-6.9 3.83s-4.7 2.35-7 3.38l-.1.05q-1.27.57-2.5 1.08l-.45.18c-1.2.5-2.37.93-3.54 1.36l-.9.33q-1.57.56-3.1 1l-1.18.35q-1.17.35-2.3.66l-1.26.33c-.88.2-1.74.4-2.6.58l-1.2.24-.3.06h-.27l-1.25.2-.53.1-.72.1-.82.1c-.85.1-1.67.16-2.47.2-.55 0-1.1 0-1.6 0-5.86 0-10.26-1.58-12.48-4.9s-2-8.3.48-13.9q.36-.83.77-1.67l-3.6-12.34-1 .95c-18.73 18.44-28.1 35.54-22.37 44.13 2.43 3.65 7.32 5.37 14 5.37 8.68 0 20.38-2.92 33.62-8.33q4.62-1.9 9.47-4.18l.33-.17 1.28-.6 1.6-.8q4.06-2 8.23-4.24 2.95-1.6 5.93-3.33t5.76-3.42l1.1-.67 1.82-1.12 1.1-.7q2.6-1.65 5.23-3.4a259.6 259.6 0 0 0 26.67-20.35l1.1-1 1.08-1 .54-.47c22.8-20.5 34.9-40.37 28.58-49.86z" class="cls-2"/><path d="M903.15 8.1l-.4-.05-2.2-.27-2.6-.32-29.92-3.66c-.52-.06-1.2-.1-2-.12h-.68c-.46 0-.9 0-1.3 0a20 20 0 0 0-10.28 3.3l-25 18.63a22.1 22.1 0 0 0-3.1 2.57 12.93 12.93 0 0 0-1.4 1.82 13.2 13.2 0 0 0-1 1.86l48 7.8a26.45 26.45 0 0 0 4.1.44c2.4 0 3.73-.75 5.74-2.6l22.66-21 1-.9 1-.9 4.22-3.93a14.42 14.42 0 0 0-6.83-2.66zm-57.47 21.67a14.4 14.4 0 0 1-2.66.26c-3.17 0-5.2-1.18-5.34-3.08-.17-2.62 3.47-4.7 7.16-5.4a14.4 14.4 0 0 1 2.66-.25c3.16 0 5.2 1.18 5.34 3.08.17 2.62-3.47 4.7-7.16 5.4zm22.7-5.4a14.4 14.4 0 0 1-2.67.26c-3.16 0-5.2-1.18-5.33-3.08-.17-2.62 3.47-4.7 7.16-5.4a14.4 14.4 0 0 1 2.66-.25c3.15 0 5.2 1.18 5.33 3.08.17 2.62-3.47 4.7-7.17 5.4zm29.4-10.9c.17 2.6-3.47 4.7-7.16 5.38a14.4 14.4 0 0 1-2.66.26c-3.17 0-5.2-1.17-5.34-3.07-.17-2.62 3.47-4.7 7.16-5.4a14.4 14.4 0 0 1 2.66-.25h.67c2.36.13 4 1 4.5 2.3a2.57 2.57 0 0 1 .18.78zM877.38 50.46c-.73-4.32-1.42-5.6-7-6.52l-48.2-7.85a15.66 15.66 0 0 0 .53 5.68l3.62 13 .4 1.42.38 1.42.53 1.92 3.3 11.77.54 1.9.5 1.76a30.76 30.76 0 0 0 2.53 7.26 15 15 0 0 0 7.74 6.66c.78 0 1.58-.1 2.4-.18l1.07-.1.43-.07h.5l1.2-.2.54-.1 1.08-.2h.07c.87-.2 1.7-.38 2.5-.58l1.2-.32c.74-.2 1.5-.4 2.24-.64l.2-.07.93-.28c1-.3 2-.65 3-1l.6-.23.26-.1c1.3-.47 2.4-.9 3.45-1.32l.46-.2a5.2 5.2 0 0 1 .48-4.12 3.9 3.9 0 0 1 3.4-1.72A8.17 8.17 0 0 1 873 79.3q4.22-2.14 8.43-4.66zm-45.77.37c-.93-2.13-.94-4.17 0-5.6a3.9 3.9 0 0 1 3.4-1.7c3.12 0 6.78 2.78 8.35 6.33.94 2.13.95 4.17 0 5.6a3.9 3.9 0 0 1-3.4 1.7c-3.1.03-6.77-2.76-8.34-6.3zm18.66 31.25a3.9 3.9 0 0 1-3.4 1.72c-3.1 0-6.76-2.8-8.33-6.34-.94-2.13-.95-4.17 0-5.6a3.9 3.9 0 0 1 3.4-1.7c3.1 0 6.77 2.78 8.34 6.33.9 2.14.92 4.18 0 5.6zm9.36-10a3.9 3.9 0 0 1-3.4 1.72c-3.1 0-6.76-2.8-8.33-6.34-.95-2.13-.96-4.17 0-5.6a3.9 3.9 0 0 1 3.4-1.7c3.1 0 6.76 2.78 8.33 6.33.9 2.12.92 4.16 0 5.58zM870.24 61a3.9 3.9 0 0 1-3.4 1.73c-3.1 0-6.77-2.8-8.34-6.34-.94-2.14-.95-4.18 0-5.6a3.9 3.9 0 0 1 3.4-1.72c3.1 0 6.77 2.8 8.34 6.34.9 2.13.92 4.17 0 5.6zM915.94 20.7v-.33c0-.44-.1-.9-.17-1.33s-.14-.9-.24-1.34a13.74 13.74 0 0 0-.4-1.53 13.6 13.6 0 0 0-1.3-2.78l-.77-1.24-4.9 4.55-1 .9-1 .9-22.08 20.55c-3.53 3.27-4.44 6-3.63 10.8l3.87 22.9.14-.08 1-.6 2-1.3.1-.07c.85-.57 1.7-1.14 2.5-1.7l1.1-.78.38-.28.38-.27.65-.47c.73-.53 1.45-1.08 2.06-1.53l.18-.13.17-.12q2.34-1.78 4.55-3.6a3.28 3.28 0 0 1-.54-.5c-1.2-1.36-1.73-4.1-1.37-7.12.48-3.9 2.38-7.84 5.1-7.84a2.76 2.76 0 0 1 2.1 1c1.14 1.35 1.7 4.1 1.33 7.1a16.47 16.47 0 0 1-.3 1.7 89.33 89.33 0 0 0 11.5-13q.52-.73 1-1.46z" class="cls-1"/></svg>